<svg width="198" height="198" viewBox="0 0 198 198" fill="none" xmlns="http://www.w3.org/2000/svg">
<path id="Vector" d="M50.7891 157.781C50.1016 158.555 49.2422 158.426 48.2109 157.395C47.0937 156.449 46.9219 155.633 47.6953 154.945C48.3828 154.172 49.2422 154.301 50.2734 155.332C51.3047 156.277 51.4766 157.094 50.7891 157.781ZM45.375 149.918C46.1484 150.949 46.1484 151.766 45.375 152.367C44.6875 152.883 43.957 152.582 43.1836 151.465C42.4102 150.348 42.4102 149.574 43.1836 149.145C43.957 148.543 44.6875 148.801 45.375 149.918ZM37.5117 142.184C37.082 142.785 36.5234 142.871 35.8359 142.441C34.9766 142.012 34.6758 141.496 34.9336 140.895C35.1914 140.465 35.75 140.379 36.6094 140.637C37.4687 141.066 37.7695 141.582 37.5117 142.184ZM41.5078 146.566C40.9922 147.168 40.3047 147.039 39.4453 146.18C38.6719 145.234 38.5859 144.547 39.1875 144.117C39.7031 143.602 40.3906 143.73 41.25 144.504C42.0234 145.449 42.1094 146.137 41.5078 146.566ZM58.1367 161.004C57.793 162.035 56.9766 162.293 55.6875 161.777C54.2266 161.434 53.668 160.789 54.0117 159.844C54.3555 158.898 55.1719 158.598 56.4609 158.941C57.8359 159.371 58.3945 160.059 58.1367 161.004ZM66.2578 161.648C66.2578 162.594 65.5703 163.066 64.1953 163.066C62.7344 163.238 62.0039 162.766 62.0039 161.648C62.0039 160.703 62.6914 160.23 64.0664 160.23C65.5273 160.059 66.2578 160.531 66.2578 161.648ZM73.7344 160.359C73.9063 161.219 73.3047 161.82 71.9297 162.164C70.5547 162.508 69.7813 162.164 69.6094 161.133C69.4375 160.102 70.0391 159.457 71.4141 159.199C72.7891 159.027 73.5625 159.414 73.7344 160.359ZM198 37.125V160.875C198 171.102 194.369 179.846 187.107 187.107C179.846 194.369 171.102 198 160.875 198H132C130.625 198 129.572 197.957 128.842 197.871C128.111 197.785 127.273 197.57 126.328 197.227C125.383 196.883 124.695 196.26 124.266 195.357C123.836 194.455 123.621 193.273 123.621 191.812V161.004C123.621 152.668 121.387 146.566 116.918 142.699C121.816 142.184 126.221 141.41 130.131 140.379C134.041 139.348 138.08 137.672 142.248 135.352C146.416 133.031 149.896 130.174 152.689 126.779C155.482 123.385 157.76 118.873 159.521 113.244C161.283 107.615 162.164 101.148 162.164 93.8438C162.164 83.4453 158.77 74.5938 151.98 67.2891C155.16 59.4687 154.816 50.7031 150.949 40.9922C148.543 40.2188 145.062 40.6914 140.508 42.4102C135.953 44.1289 132 46.0195 128.648 48.082L123.75 51.1758C115.758 48.9414 107.508 47.8242 99 47.8242C90.4922 47.8242 82.2422 48.9414 74.25 51.1758C72.875 50.2305 71.0488 49.0703 68.7715 47.6953C66.4941 46.3203 62.9062 44.666 58.0078 42.7324C53.1094 40.7988 49.4141 40.2188 46.9219 40.9922C43.1406 50.7031 42.8398 59.4687 46.0195 67.2891C39.2305 74.5938 35.8359 83.4453 35.8359 93.8438C35.8359 101.148 36.7168 107.594 38.4785 113.18C40.2402 118.766 42.4961 123.277 45.2461 126.715C47.9961 130.152 51.4551 133.031 55.623 135.352C59.791 137.672 63.8301 139.348 67.7402 140.379C71.6504 141.41 76.0547 142.184 80.9531 142.699C77.5156 145.793 75.4102 150.219 74.6367 155.977C72.832 156.836 70.8984 157.48 68.8359 157.91C66.7734 158.34 64.3242 158.555 61.4883 158.555C58.6523 158.555 55.8379 157.631 53.0449 155.783C50.252 153.936 47.8672 151.25 45.8906 147.727C44.2578 144.977 42.1738 142.742 39.6387 141.023C37.1035 139.305 34.9766 138.273 33.2578 137.93L30.6797 137.543C28.875 137.543 27.6289 137.736 26.9414 138.123C26.2539 138.51 26.0391 139.004 26.2969 139.605C26.5547 140.207 26.9414 140.809 27.457 141.41C27.9727 142.012 28.5313 142.527 29.1328 142.957L30.0352 143.602C31.9258 144.461 33.7949 146.094 35.6426 148.5C37.4902 150.906 38.8438 153.098 39.7031 155.074L40.9922 158.039C42.1094 161.305 44 163.947 46.6641 165.967C49.3281 167.986 52.207 169.275 55.3008 169.834C58.3945 170.393 61.3809 170.693 64.2598 170.736C67.1387 170.779 69.5234 170.629 71.4141 170.285L74.3789 169.77C74.3789 173.035 74.4004 177.461 74.4434 183.047C74.4863 188.633 74.5078 191.555 74.5078 191.812C74.5078 193.703 74.0352 195.143 73.0898 196.131C72.1445 197.119 71.1992 197.678 70.2539 197.807C69.3086 197.936 67.8906 198 66 198H37.125C26.8984 198 18.1543 194.369 10.8926 187.107C3.63086 179.846 0 171.102 0 160.875V37.125C0 26.8984 3.63086 18.1543 10.8926 10.8926C18.1543 3.63086 26.8984 0 37.125 0H160.875C171.102 0 179.846 3.63086 187.107 10.8926C194.369 18.1543 198 26.8984 198 37.125Z" fill="black"/>
</svg>
