<svg width="197" height="198" viewBox="0 0 197 198" fill="none" xmlns="http://www.w3.org/2000/svg">
<path d="M182.141 0.00138083H14.858C12.9776 -0.0247348 11.1105 0.319825 9.36326 1.01538C7.61602 1.71094 6.02292 2.74387 4.67492 4.05519C3.32693 5.3665 2.25045 6.93051 1.50697 8.6579C0.763483 10.3853 0.367555 12.2422 0.341797 14.1226V183.38C0.367555 185.261 0.763483 187.117 1.50697 188.845C2.25045 190.572 3.32693 192.136 4.67492 193.448C6.02292 194.759 7.61602 195.792 9.36326 196.487C11.1105 197.183 12.9776 197.527 14.858 197.501H182.141C184.021 197.527 185.888 197.183 187.635 196.487C189.383 195.792 190.976 194.759 192.324 193.448C193.672 192.136 194.748 190.572 195.492 188.845C196.235 187.117 196.631 185.261 196.657 183.38V14.1226C196.631 12.2422 196.235 10.3853 195.492 8.6579C194.748 6.93051 193.672 5.3665 192.324 4.05519C190.976 2.74387 189.383 1.71094 187.635 1.01538C185.888 0.319825 184.021 -0.0247348 182.141 0.00138083ZM59.888 165.309H30.263V76.4339H59.888V165.309ZM45.0755 63.9914C40.9899 63.9914 37.0716 62.3684 34.1826 59.4794C31.2936 56.5904 29.6705 52.672 29.6705 48.5864C29.6705 44.5007 31.2936 40.5824 34.1826 37.6934C37.0716 34.8044 40.9899 33.1814 45.0755 33.1814C47.245 32.9353 49.442 33.1503 51.5227 33.8122C53.6033 34.4741 55.5207 35.5681 57.1493 37.0224C58.7778 38.4767 60.0809 40.2586 60.973 42.2514C61.8652 44.2442 62.3264 46.403 62.3264 48.5864C62.3264 50.7698 61.8652 52.9286 60.973 54.9214C60.0809 56.9142 58.7778 58.6961 57.1493 60.1504C55.5207 61.6047 53.6033 62.6986 51.5227 63.3605C49.442 64.0224 47.245 64.2374 45.0755 63.9914ZM166.736 165.309H137.111V117.613C137.111 105.664 132.864 97.8626 122.101 97.8626C118.769 97.887 115.526 98.9319 112.807 100.856C110.087 102.781 108.024 105.493 106.893 108.626C106.12 110.947 105.785 113.392 105.906 115.835V165.21H76.2805C76.2805 165.21 76.2805 84.4326 76.2805 76.3351H105.906V88.8764C108.597 84.2066 112.511 80.3594 117.227 77.7493C121.942 75.1391 127.281 73.8649 132.667 74.0639C152.417 74.0639 166.736 86.8026 166.736 114.156V165.309Z" fill="black"/>
</svg>
